<?xml version="1.0" standalone="no"?>
<!DOCTYPE svg PUBLIC "-//W3C//DTD SVG 20010904//EN"
 "http://www.w3.org/TR/2001/REC-SVG-20010904/DTD/svg10.dtd">
<svg version="1.0" xmlns="http://www.w3.org/2000/svg"
 width="298.000000pt" height="325.000000pt" viewBox="0 0 298.000000 325.000000"
 preserveAspectRatio="xMidYMid meet">

<g transform="translate(0.000000,325.000000) scale(0.100000,-0.100000)"
fill="#000000" stroke="none">
<path d="M2253 3225 c-65 -33 -101 -80 -116 -150 -9 -43 -8 -64 2 -98 25 -82
24 -101 -4 -158 -15 -30 -93 -171 -173 -314 -80 -143 -169 -303 -198 -355 -69
-127 -194 -345 -227 -397 -31 -49 -42 -56 -117 -73 -139 -33 -215 -95 -243
-198 -32 -116 17 -228 125 -288 43 -23 65 -29 118 -29 85 0 149 32 207 103 61
75 74 138 62 297 -3 47 2 60 103 245 153 282 262 481 328 595 31 55 89 161
129 235 74 138 107 180 142 180 27 0 89 33 116 62 53 57 69 167 34 244 -10 22
-36 55 -57 72 -70 58 -150 67 -231 27z m158 -92 c69 -41 76 -134 13 -192 -33
-31 -40 -33 -86 -29 -96 10 -147 103 -96 178 41 60 110 78 169 43z"/>
<path d="M1210 2783 c-8 -3 -31 -13 -50 -23 -19 -9 -64 -20 -98 -24 -399 -45
-815 -404 -975 -841 -62 -169 -87 -309 -87 -487 0 -379 141 -711 419 -989 230
-229 501 -365 820 -410 118 -17 351 -6 470 21 352 79 658 281 865 570 115 160
190 334 237 545 19 88 22 138 26 410 l5 310 58 61 c97 101 108 212 28 308 -88
107 -263 97 -337 -20 -57 -89 -49 -173 25 -281 l36 -52 -4 -338 c-5 -364 -5
-366 -70 -548 -149 -419 -560 -750 -1002 -805 -237 -30 -471 7 -681 109 -350
169 -596 468 -686 834 -29 120 -37 353 -15 476 53 305 221 582 460 763 93 70
232 140 324 164 59 14 65 14 82 -1 10 -10 22 -30 25 -45 9 -39 50 -91 93 -117
48 -30 127 -31 181 -3 75 38 141 137 141 211 0 83 -60 167 -137 193 -45 15
-122 20 -153 9z m148 -131 c55 -52 54 -112 -2 -168 -44 -44 -80 -52 -125 -28
-79 43 -90 124 -25 189 29 29 42 35 78 35 34 0 51 -6 74 -28z m1488 -476 c29
-29 34 -41 34 -79 0 -52 -30 -96 -80 -117 -80 -33 -168 56 -146 146 4 15 20
39 36 55 23 24 37 29 75 29 40 0 52 -5 81 -34z"/>
<path d="M1038 2355 c-266 -93 -472 -296 -584 -579 -53 -133 -67 -225 -62
-405 5 -146 8 -163 42 -265 102 -306 331 -545 628 -656 208 -77 457 -81 668
-10 276 93 506 296 625 553 68 148 78 200 80 425 l1 202 27 28 c74 78 75 220
0 297 -44 46 -92 65 -160 65 -97 0 -167 -51 -195 -142 -28 -89 -2 -178 69
-236 21 -18 45 -38 55 -46 34 -29 35 -249 3 -391 -68 -300 -375 -569 -699
-614 -164 -23 -282 -10 -433 49 -115 44 -215 113 -308 212 -97 103 -146 183
-187 308 -57 176 -50 405 19 577 33 82 109 200 176 270 81 87 211 167 335 207
28 10 52 18 52 19 0 11 -43 115 -55 133 -18 28 -13 28 -97 -1z m1321 -450 c32
-16 61 -69 61 -112 0 -64 -78 -132 -135 -117 -34 8 -82 55 -91 88 -11 46 4 92
42 125 39 35 78 40 123 16z"/>
<path d="M1240 2019 c-83 -16 -203 -84 -278 -157 -196 -191 -244 -471 -123
-717 51 -104 98 -162 179 -225 212 -164 473 -183 711 -53 81 44 128 84 191
162 79 99 113 179 118 284 l4 87 -80 0 -81 0 -11 -42 c-40 -156 -91 -238 -189
-304 -150 -101 -338 -112 -493 -27 -69 38 -153 130 -191 210 -30 64 -32 74
-32 183 0 104 3 120 27 173 31 65 123 167 183 203 55 32 120 54 184 62 l54 7
17 50 c34 100 35 91 -14 104 -51 13 -111 13 -176 0z"/>
</g>
</svg>
